<svg width="110" height="116" viewBox="0 0 110 116" fill="none" xmlns="http://www.w3.org/2000/svg">
<path d="M106.742 54.5682L57.6962 103.614C51.6877 109.623 43.5384 112.998 35.0411 112.998C26.5438 112.998 18.3945 109.623 12.386 103.614C6.37753 97.6056 3.002 89.4563 3.002 80.959C3.002 72.4617 6.37753 64.3125 12.386 58.304L61.432 9.25802C65.4376 5.25236 70.8705 3.002 76.5354 3.002C82.2002 3.002 87.6331 5.25236 91.6387 9.25802C95.6444 13.2637 97.8948 18.6965 97.8948 24.3614C97.8948 30.0263 95.6444 35.4591 91.6387 39.4648L42.5394 88.5107C40.5366 90.5136 37.8202 91.6387 34.9877 91.6387C32.1553 91.6387 29.4389 90.5136 27.436 88.5107C25.4332 86.5079 24.308 83.7915 24.308 80.959C24.308 78.1266 25.4332 75.4102 27.436 73.4073L72.7462 28.1506" stroke="#6AB18B" stroke-width="3" stroke-linecap="round" stroke-linejoin="round"/>
</svg>
