<svg width="33" height="41" viewBox="0 0 33 41" fill="none" xmlns="http://www.w3.org/2000/svg">
<path d="M0 22.4058V18.1325C0 6.78527 6.26554 0 17.122 0C22.2614 0 26.8234 1.55917 29.653 4.30215C31.5587 6.15005 32.7136 8.40218 32.7136 10.1923C32.7136 12.5022 31.1256 14.0325 28.8157 14.0325C27.2854 14.0325 26.1594 13.455 24.6579 11.9247C22.4924 9.26838 20.4713 8.0557 17.6994 8.0557C12.5022 8.0557 9.55712 11.8959 9.55712 18.5656V21.9727C9.55712 29.0756 12.4445 32.9158 17.6994 32.9158C20.5002 32.9158 22.7523 31.7031 24.8023 29.1045C26.3326 27.5164 27.372 26.9678 28.8446 26.9678C31.1833 26.9678 32.7714 28.527 32.7714 30.808C32.7714 33.089 31.2122 35.6299 28.7002 37.5066C25.8706 39.701 21.8861 41.0003 17.122 41.0003C6.0923 41.0003 0 34.2439 0 22.4058Z" fill="#1B2821"/>
</svg>
