<svg width="108" height="108" viewBox="0 0 108 108" fill="none" xmlns="http://www.w3.org/2000/svg">
<path d="M65.7971 26.1075C64.814 27.1104 64.2634 28.4588 64.2634 29.8631C64.2634 31.2675 64.814 32.6158 65.7971 33.6187L74.3813 42.2029C75.3842 43.186 76.7325 43.7366 78.1369 43.7366C79.5412 43.7366 80.8896 43.186 81.8925 42.2029L102.119 21.9764C104.817 27.938 105.634 34.5803 104.461 41.018C103.288 47.4557 100.181 53.383 95.5536 58.0101C90.9265 62.6372 84.9992 65.7442 78.5615 66.9172C72.1238 68.0902 65.4815 67.2733 59.5199 64.5755L22.4468 101.649C20.3124 103.783 17.4175 104.982 14.3991 104.982C11.3806 104.982 8.48574 103.783 6.35136 101.649C4.21697 99.5142 3.01789 96.6194 3.01789 93.6009C3.01789 90.5825 4.21697 87.6876 6.35136 85.5532L43.4245 48.4801C40.7267 42.5185 39.9098 35.8762 41.0828 29.4385C42.2558 23.0008 45.3628 17.0735 49.9899 12.4464C54.617 7.81931 60.5443 4.71226 66.982 3.5393C73.4197 2.36633 80.062 3.18317 86.0236 5.88095L65.8507 26.0539L65.7971 26.1075Z" stroke="#6AB18B" stroke-width="3" stroke-linecap="round" stroke-linejoin="round"/>
</svg>
