<svg width="118" height="104" viewBox="0 0 118 104" fill="none" xmlns="http://www.w3.org/2000/svg">
<path d="M106.353 11.6474C103.617 8.91011 100.368 6.73869 96.7926 5.2572C93.2172 3.77572 89.3849 3.01319 85.5147 3.01319C81.6445 3.01319 77.8122 3.77572 74.2367 5.2572C70.6613 6.73869 67.4128 8.91011 64.6768 11.6474L58.9986 17.3256L53.3204 11.6474C47.7938 6.12085 40.2982 3.01606 32.4825 3.01606C24.6667 3.01606 17.1711 6.12085 11.6445 11.6474C6.11798 17.174 3.01319 24.6696 3.01319 32.4853C3.01319 40.301 6.11798 47.7967 11.6445 53.3232L17.3227 59.0014L58.9986 100.677L100.674 59.0014L106.353 53.3232C109.09 50.5872 111.261 47.3387 112.743 43.7633C114.224 40.1878 114.987 36.3555 114.987 32.4853C114.987 28.6151 114.224 24.7828 112.743 21.2074C111.261 17.6319 109.09 14.3834 106.353 11.6474Z" stroke="#6AB18B" stroke-width="3" stroke-linecap="round" stroke-linejoin="round"/>
</svg>
