<svg width="46" height="46" viewBox="0 0 46 46" fill="none" xmlns="http://www.w3.org/2000/svg">
<path d="M43.9999 21.8333C44.0079 24.913 43.2884 27.9511 41.8999 30.7C40.2536 33.994 37.7227 36.7647 34.5906 38.7016C31.4586 40.6385 27.8492 41.6652 24.1666 41.6666C21.0869 41.6747 18.0489 40.9551 15.3 39.5666L1.99999 43.9999L6.43332 30.7C5.04483 27.9511 4.32529 24.913 4.33332 21.8333C4.33475 18.1508 5.36141 14.5413 7.29833 11.4093C9.23524 8.27729 12.0059 5.74637 15.3 4.10006C18.0489 2.71157 21.0869 1.99203 24.1666 2.00006H25.3333C30.1967 2.26837 34.7903 4.32116 38.2346 7.76538C41.6788 11.2096 43.7316 15.8032 43.9999 20.6667V21.8333Z" stroke="#666666" stroke-width="2" stroke-linecap="round" stroke-linejoin="round"/>
</svg>
